<svg width="28" height="28" viewBox="0 0 28 28" fill="none" xmlns="http://www.w3.org/2000/svg">
<foreignObject x="-20" y="-20" width="68" height="68"><div xmlns="http://www.w3.org/1999/xhtml" style="backdrop-filter:blur(10px);clip-path:url(#bgblur_0_7351_12672_clip_path);height:100%;width:100%"></div></foreignObject><rect data-figma-bg-blur-radius="20" width="28" height="28" rx="6" fill="#FFD63A"/>
<path d="M17.3333 20.667H10.6666C10.3933 20.667 10.1666 20.4403 10.1666 20.167C10.1666 19.8937 10.3933 19.667 10.6666 19.667H17.3333C17.6066 19.667 17.8333 19.8937 17.8333 20.167C17.8333 20.4403 17.6066 20.667 17.3333 20.667Z" fill="#262626"/>
<path d="M19.5667 9.68035L16.9 11.587C16.5467 11.8404 16.04 11.687 15.8867 11.2804L14.6267 7.92035C14.4134 7.34035 13.5934 7.34035 13.38 7.92035L12.1134 11.2737C11.96 11.687 11.46 11.8404 11.1067 11.5804L8.44002 9.67369C7.90669 9.30035 7.20002 9.82702 7.42002 10.447L10.1934 18.2137C10.2867 18.4804 10.54 18.6537 10.82 18.6537H17.1734C17.4534 18.6537 17.7067 18.4737 17.8 18.2137L20.5734 10.447C20.8 9.82702 20.0934 9.30035 19.5667 9.68035ZM15.6667 15.8337H12.3334C12.06 15.8337 11.8334 15.607 11.8334 15.3337C11.8334 15.0604 12.06 14.8337 12.3334 14.8337H15.6667C15.94 14.8337 16.1667 15.0604 16.1667 15.3337C16.1667 15.607 15.94 15.8337 15.6667 15.8337Z" fill="#262626"/>
<defs>
<clipPath id="bgblur_0_7351_12672_clip_path" transform="translate(20 20)"><rect width="28" height="28" rx="6"/>
</clipPath></defs>
</svg>
